<mxfile host="app.diagrams.net" modified="2022-02-23T13:16:38.277Z" agent="5.0 (Windows NT 10.0; Win64; x64) AppleWebKit/537.36 (KHTML, like Gecko) Chrome/98.0.4758.102 Safari/537.36 Edg/98.0.1108.56" etag="mWUGf3712tLWT8euOOMC" version="16.5.6" type="github">
  <diagram id="Doy6efV_QYz7SsHLHFVV" name="Page-1">
    <mxGraphModel dx="782" dy="428" grid="1" gridSize="10" guides="1" tooltips="1" connect="1" arrows="1" fold="1" page="1" pageScale="1" pageWidth="827" pageHeight="1169" math="0" shadow="0">
      <root>
        <mxCell id="0" />
        <mxCell id="1" parent="0" />
        <mxCell id="SrF9chMBuammDGks49tK-1" value="" style="rounded=0;whiteSpace=wrap;html=1;" vertex="1" parent="1">
          <mxGeometry x="170" y="80" width="370" height="200" as="geometry" />
        </mxCell>
        <mxCell id="SrF9chMBuammDGks49tK-2" value="&lt;font style=&quot;font-size: 16px&quot;&gt;Docker&lt;/font&gt;" style="text;html=1;strokeColor=none;fillColor=none;align=center;verticalAlign=middle;whiteSpace=wrap;rounded=0;" vertex="1" parent="1">
          <mxGeometry x="170" y="80" width="60" height="30" as="geometry" />
        </mxCell>
        <mxCell id="SrF9chMBuammDGks49tK-3" value="" style="rounded=0;whiteSpace=wrap;html=1;fontSize=16;" vertex="1" parent="1">
          <mxGeometry x="180" y="120" width="170" height="150" as="geometry" />
        </mxCell>
        <mxCell id="SrF9chMBuammDGks49tK-4" value="" style="rounded=0;whiteSpace=wrap;html=1;fontSize=16;" vertex="1" parent="1">
          <mxGeometry x="360" y="120" width="170" height="150" as="geometry" />
        </mxCell>
        <mxCell id="SrF9chMBuammDGks49tK-5" value="&lt;font style=&quot;font-size: 16px&quot;&gt;LXC&lt;/font&gt;&lt;span style=&quot;color: rgba(0 , 0 , 0 , 0) ; font-family: monospace ; font-size: 0px&quot;&gt;%3CmxGraphModel%3E%3Croot%3E%3CmxCell%20id%3D%220%22%2F%3E%3CmxCell%20id%3D%221%22%20parent%3D%220%22%2F%3E%3CmxCell%20id%3D%222%22%20value%3D%22%26lt%3Bfont%20style%3D%26quot%3Bfont-size%3A%2016px%26quot%3B%26gt%3BDocker%26lt%3B%2Ffont%26gt%3B%22%20style%3D%22text%3Bhtml%3D1%3BstrokeColor%3Dnone%3BfillColor%3Dnone%3Balign%3Dcenter%3BverticalAlign%3Dmiddle%3BwhiteSpace%3Dwrap%3Brounded%3D0%3B%22%20vertex%3D%221%22%20parent%3D%221%22%3E%3CmxGeometry%20x%3D%22170%22%20y%3D%2250%22%20width%3D%2260%22%20height%3D%2230%22%20as%3D%22geometry%22%2F%3E%3C%2FmxCell%3E%3C%2Froot%3E%3C%2FmxGraphModel%3E&lt;/span&gt;" style="text;html=1;strokeColor=none;fillColor=none;align=center;verticalAlign=middle;whiteSpace=wrap;rounded=0;" vertex="1" parent="1">
          <mxGeometry x="180" y="120" width="60" height="30" as="geometry" />
        </mxCell>
        <mxCell id="SrF9chMBuammDGks49tK-6" value="&lt;font style=&quot;font-size: 14px&quot;&gt;AnotherUnionFS(AUFS)&lt;/font&gt;" style="text;html=1;strokeColor=none;fillColor=none;align=center;verticalAlign=middle;whiteSpace=wrap;rounded=0;" vertex="1" parent="1">
          <mxGeometry x="415" y="185" width="60" height="30" as="geometry" />
        </mxCell>
        <mxCell id="SrF9chMBuammDGks49tK-8" value="&lt;font style=&quot;font-size: 12px&quot;&gt;namespace&lt;/font&gt;" style="rounded=0;whiteSpace=wrap;html=1;fontSize=14;" vertex="1" parent="1">
          <mxGeometry x="190" y="150" width="70" height="50" as="geometry" />
        </mxCell>
        <mxCell id="SrF9chMBuammDGks49tK-10" value="&lt;font style=&quot;font-size: 12px&quot;&gt;Cgroup&lt;/font&gt;" style="rounded=0;whiteSpace=wrap;html=1;fontSize=14;" vertex="1" parent="1">
          <mxGeometry x="270" y="150" width="70" height="50" as="geometry" />
        </mxCell>
        <mxCell id="SrF9chMBuammDGks49tK-11" value="&lt;font style=&quot;font-size: 12px&quot;&gt;chroot&lt;/font&gt;" style="rounded=0;whiteSpace=wrap;html=1;fontSize=14;" vertex="1" parent="1">
          <mxGeometry x="190" y="210" width="70" height="50" as="geometry" />
        </mxCell>
        <mxCell id="SrF9chMBuammDGks49tK-12" value="&lt;font style=&quot;font-size: 12px&quot;&gt;...&lt;/font&gt;" style="rounded=0;whiteSpace=wrap;html=1;fontSize=14;" vertex="1" parent="1">
          <mxGeometry x="270" y="210" width="70" height="50" as="geometry" />
        </mxCell>
      </root>
    </mxGraphModel>
  </diagram>
</mxfile>
